<svg xmlns="http://www.w3.org/2000/svg" viewBox="0 0 24 24"><path d="M19 4 L20.5 5.5 L9 17 L7 18 L5.5 19.5 L4 18 L5.5 16.5 L6.5 14.5 L18 3 Z" fill="#3d2417"/><path d="M4 5 L6 3 L11 8 L10 9 L9 8 L8 9 L7 8 L8 7 L7 6 L6 7 L5 6 Z" fill="#7a6a52" stroke="#3d2417" stroke-width="1.3" stroke-linejoin="round"/><line x1="6.5" y1="9.5" x2="18.5" y2="20" stroke="#3d2417" stroke-width="2.6"/><line x1="6.7" y1="9.7" x2="18.5" y2="20" stroke="#8a5e2a" stroke-width="1.6"/><path d="M16 4 L21 9 L17 13 L16 12 L17 10 L13 6 L15 5 Z" fill="#cdc8be" stroke="#3d2417" stroke-width="1.3" stroke-linejoin="round"/><line x1="13" y1="6" x2="14" y2="7" stroke="#7a7468" stroke-width="0.5"/><line x1="6" y1="14" x2="18" y2="2" stroke="#3d2417" stroke-width="2.4"/><line x1="6.5" y1="13.7" x2="17.6" y2="2.6" stroke="#8a5e2a" stroke-width="1.4"/><path d="M5 21 L7 19" stroke="#3d2417" stroke-width="2"/><path d="M5.4 20.6 L6.6 19.4" stroke="#cdc8be" stroke-width="0.6"/></svg>
