<svg xmlns="http://www.w3.org/2000/svg" viewBox="0 0 24 24"><ellipse cx="12" cy="14" rx="6.5" ry="5.5" fill="#3d2417"/><ellipse cx="12" cy="14" rx="6" ry="5" fill="#8a5e2a" stroke="#3d2417" stroke-width="1.2"/><ellipse cx="9" cy="9.5" rx="1.5" ry="1.8" fill="#3d2417"/><ellipse cx="9" cy="9.5" rx="1.1" ry="1.4" fill="#a87a2c" stroke="#3d2417" stroke-width="0.5"/><ellipse cx="15" cy="9.5" rx="1.5" ry="1.8" fill="#3d2417"/><ellipse cx="15" cy="9.5" rx="1.1" ry="1.4" fill="#a87a2c" stroke="#3d2417" stroke-width="0.5"/><circle cx="10" cy="13" r="0.5" fill="#3d2417"/><circle cx="14" cy="13" r="0.5" fill="#3d2417"/><ellipse cx="12" cy="15" rx="1.5" ry="1.2" fill="#5a3018"/><ellipse cx="12" cy="15" rx="1.2" ry="0.9" fill="#7a4a22" stroke="#3d2417" stroke-width="0.4"/><circle cx="12" cy="14.7" r="0.3" fill="#3d2417"/><rect x="11.2" y="15.8" width="1.6" height="2" fill="#fff" stroke="#3d2417" stroke-width="0.5"/><line x1="12" y1="15.8" x2="12" y2="17.8" stroke="#3d2417" stroke-width="0.4"/><path d="M3 17 Q5 16 7 16.5 Q5 17.5 3 18 Q2 17.5 3 17 Z" fill="#3d2417"/><path d="M3.4 17.1 Q5 16.4 6.5 16.7 Q5 17.3 3.4 17.6 Q2.7 17.4 3.4 17.1 Z" fill="#7a4a22" stroke="#3d2417" stroke-width="0.6"/><path d="M3.4 17.1 L6.5 16.7" stroke="#3d2417" stroke-width="0.4" opacity="0.5"/><path d="M3.4 17.6 L6.5 17.2" stroke="#3d2417" stroke-width="0.4" opacity="0.5"/><path d="M17 19 Q20 21 21 19 Q20 18 17 19 Z" fill="#7a6a52" stroke="#3d2417" stroke-width="1"/><line x1="18" y1="19.3" x2="20" y2="19.7" stroke="#3d2417" stroke-width="0.4" opacity="0.5"/></svg>
