<svg xmlns="http://www.w3.org/2000/svg" viewBox="0 0 24 24"><path d="M3.5 5 Q3 4 4 4 L18 3.8 L20.5 5.5 L20.5 19 L18 20.5 L4 20.5 Q3 20.5 3.5 19.5 Z" fill="#3d2417"/><path d="M4 5.5 Q4 4.5 5 4.5 L17.6 4.4 L19.8 6 L19.8 18.5 L17.6 19.8 L5 19.8 Q4 19.8 4 19 Z" fill="#f3deaa" stroke="#3d2417" stroke-width="1.3" stroke-linejoin="round"/><path d="M17.6 4.4 L19.8 6 L17.6 6.2 Z" fill="#c8a878" stroke="#3d2417" stroke-width="0.8" stroke-linejoin="round"/><path d="M17.6 19.8 L19.8 18.5 L17.6 18.2 Z" fill="#c8a878" stroke="#3d2417" stroke-width="0.8" stroke-linejoin="round"/><text x="11" y="9.5" text-anchor="middle" font-family="serif" font-size="3.2" font-weight="700" letter-spacing="0.5" fill="#3d2417">WANTED</text><circle cx="11" cy="14" r="3.5" fill="none" stroke="#a8332a" stroke-width="1.4"/><circle cx="11" cy="14" r="2" fill="none" stroke="#a8332a" stroke-width="1"/><circle cx="11" cy="14" r="0.6" fill="#a8332a"/><line x1="11" y1="10.5" x2="11" y2="17.5" stroke="#a8332a" stroke-width="0.5" opacity="0.5"/><line x1="7.5" y1="14" x2="14.5" y2="14" stroke="#a8332a" stroke-width="0.5" opacity="0.5"/></svg>
