<svg xmlns="http://www.w3.org/2000/svg" viewBox="0 0 24 24"><path d="M5 7 L8 5 L12 4 L16 5 L19 7 L19 14 L18 18 Q14 19 12 20.5 Q10 19 6 18 L5 14 Z" fill="#3d2417"/><path d="M5.5 7.4 L8.3 5.6 L12 4.6 L15.7 5.6 L18.5 7.4 L18.5 13.8 L17.5 17.4 Q14 18.4 12 19.7 Q10 18.4 6.5 17.4 L5.5 13.8 Z" fill="#cdc8be" stroke="#3d2417" stroke-width="1.3" stroke-linejoin="round"/><path d="M9.5 7 L12 6 L14.5 7 L14.5 13 L12 14 L9.5 13 Z" fill="#8a5e2a" stroke="#3d2417" stroke-width="0.8"/><circle cx="12" cy="9.5" r="1.4" fill="#d4a24c" stroke="#3d2417" stroke-width="0.7"/><circle cx="12" cy="9.5" r="0.5" fill="#3d2417"/><line x1="12" y1="11.5" x2="12" y2="13.5" stroke="#3d2417" stroke-width="0.7"/><path d="M5.5 8 L7 7" stroke="#7a7468" stroke-width="0.5" opacity="0.7"/><path d="M18.5 8 L17 7" stroke="#7a7468" stroke-width="0.5" opacity="0.7"/><path d="M6.5 16 L7.5 13.5" stroke="#3d2417" stroke-width="0.5" opacity="0.4"/></svg>
