<svg xmlns="http://www.w3.org/2000/svg" viewBox="0 0 24 24"><path d="M12.2 3 L19.1 5 L18.4 13 Q17.8 17 12 21 Q6.2 17 5.6 13 L5 5 Z" fill="#3d2417"/><path d="M12.2 3.6 L18.6 5.4 L17.9 12.8 Q17.4 16.5 12 20.3 Q6.6 16.5 6.1 12.8 L5.5 5.4 Z" fill="#f3deaa" stroke="#3d2417" stroke-width="1.4" stroke-linejoin="round"/><line x1="12" y1="6" x2="12" y2="18" stroke="#3d2417" stroke-width="0.7"/><line x1="7" y1="9" x2="17" y2="9" stroke="#3d2417" stroke-width="0.7"/><circle cx="12" cy="9" r="1.2" fill="#c8862a" stroke="#3d2417" stroke-width="0.6"/><path d="M14 18.5 Q12 19.8 10 18.5" stroke="#5a3018" stroke-width="0.5" fill="none" opacity="0.6"/><path d="M3 22 L7.5 17.5 L9.5 19.5 L5 24 Z" fill="#3d2417"/><path d="M3.4 22 L7.5 17.9 L9.1 19.5 L5 23.6 Z" fill="#a8332a" stroke="#5a1208" stroke-width="0.4"/><path d="M7.5 17.5 L17.7 7.3 L19.7 9.3 L9.5 19.5 Z" fill="#3d2417"/><path d="M7.9 17.5 L17.7 7.7 L19.3 9.3 L9.5 19.1 Z" fill="#cdc8be" stroke="#3d2417" stroke-width="1.2" stroke-linejoin="round"/><line x1="9" y1="16.5" x2="18.5" y2="7" stroke="#7a7468" stroke-width="0.5"/><rect x="17.7" y="6.2" width="3.2" height="2.6" rx="0.4" fill="#d4a24c" stroke="#3d2417" stroke-width="1.1" transform="rotate(45 19.3 7.5)"/></svg>
