<svg xmlns="http://www.w3.org/2000/svg" viewBox="0 0 24 24"><path d="M3 21 L3 9 Q3 4 12 3.5 Q21 4 21 9 L21 21 Z" fill="#3d2417"/><path d="M3.5 20.5 L3.5 9.2 Q3.5 4.5 12 4 Q20.5 4.5 20.5 9.2 L20.5 20.5 Z" fill="#7a6a52" stroke="#3d2417" stroke-width="1.3" stroke-linejoin="round"/><path d="M5 7 L8 7" stroke="#3d2417" stroke-width="0.7"/><path d="M16 7 L19 7" stroke="#3d2417" stroke-width="0.7"/><path d="M5 11 L7 11" stroke="#3d2417" stroke-width="0.7"/><path d="M17 11 L19 11" stroke="#3d2417" stroke-width="0.7"/><path d="M3.5 15 L7 14.5" stroke="#3d2417" stroke-width="0.7"/><path d="M17 14.5 L20.5 15" stroke="#3d2417" stroke-width="0.7"/><path d="M5 18 L8 18" stroke="#3d2417" stroke-width="0.7"/><path d="M16 18 L19 18" stroke="#3d2417" stroke-width="0.7"/><path d="M7.5 21 L7.5 14 Q7.5 9 12 8.7 Q16.5 9 16.5 14 L16.5 21 Z" fill="#1a0f0a" stroke="#3d2417" stroke-width="1.4" stroke-linejoin="round"/><path d="M8 21 L8 14.2 Q8 9.5 12 9.2 Q16 9.5 16 14.2 L16 21" fill="none" stroke="#5a3018" stroke-width="0.5" opacity="0.6"/><circle cx="14.5" cy="14" r="0.7" fill="#d4a24c" opacity="0.7"/></svg>
