<svg xmlns="http://www.w3.org/2000/svg" viewBox="0 0 24 24"><path d="M12 4 Q11 6 11 9 L11 19 Q11 20 12 20 Q13 20 13 19 L13 9 Q13 6 12 4 Z" fill="#8a5e2a" stroke="#3d2417" stroke-width="1.2" stroke-linejoin="round"/><g stroke="#c8862a" stroke-width="0.8" stroke-linecap="round" fill="none"><path d="M11 7 Q9 5 8 7"/><path d="M11 7 Q9 8 7.5 7"/><path d="M13 7 Q15 5 16 7"/><path d="M13 7 Q15 8 16.5 7"/><path d="M11 5.5 Q9.5 4 9 5.5"/><path d="M13 5.5 Q14.5 4 15 5.5"/><path d="M12 4 Q11.5 2.5 11 3.5"/><path d="M12 4 Q12.5 2.5 13 3.5"/></g><g stroke="#5e7d2a" stroke-width="0.8" stroke-linecap="round" fill="none"><path d="M9 11 Q7 9.5 6.5 11"/><path d="M15 11 Q17 9.5 17.5 11"/><path d="M9 14 Q7.5 13 7 14.5"/><path d="M15 14 Q16.5 13 17 14.5"/></g><path d="M5 19.5 Q12 18 19 19.5 Q19 20.5 12 20.5 Q5 20.5 5 19.5 Z" fill="#a8332a" stroke="#3d2417" stroke-width="1" stroke-linejoin="round"/><path d="M9.5 19 L11 21" stroke="#3d2417" stroke-width="0.6" opacity="0.5"/><path d="M14.5 19 L13 21" stroke="#3d2417" stroke-width="0.6" opacity="0.5"/></svg>
