<svg xmlns="http://www.w3.org/2000/svg" viewBox="0 0 24 24"><g fill="#e8e3d4" opacity="0.75"><ellipse cx="17" cy="6.5" rx="1.4" ry="1"/><ellipse cx="17.5" cy="4.5" rx="1.6" ry="1.1"/><ellipse cx="17" cy="2.5" rx="1.8" ry="1.2" opacity="0.6"/></g><path d="M3 12 L12 4 L21 12 Z" fill="#3d2417"/><path d="M3.5 12 L12 4.6 L20.5 12 Z" fill="#7a3a1c" stroke="#3d2417" stroke-width="1.2" stroke-linejoin="round"/><rect x="15.5" y="6" width="2.5" height="3.5" fill="#3d2417"/><rect x="15.7" y="6.2" width="2.1" height="3.1" fill="#5a2818" stroke="#3d2417" stroke-width="0.6"/><rect x="5" y="11.5" width="14" height="9" fill="#3d2417"/><rect x="5.4" y="11.9" width="13.2" height="8.7" fill="#c8a878" stroke="#3d2417" stroke-width="1.2"/><line x1="5.4" y1="14.5" x2="18.6" y2="14.5" stroke="#8a6e3a" stroke-width="0.5"/><line x1="5.4" y1="17" x2="18.6" y2="17" stroke="#8a6e3a" stroke-width="0.5"/><rect x="10.5" y="14.5" width="3" height="6.2" fill="#3d2417"/><circle cx="13" cy="17.8" r="0.4" fill="#c8862a"/><rect x="6.5" y="13" width="2.5" height="2.2" fill="#f8d28a" stroke="#3d2417" stroke-width="0.7"/><rect x="15" y="13" width="2.5" height="2.2" fill="#f8d28a" stroke="#3d2417" stroke-width="0.7"/></svg>
