<svg xmlns="http://www.w3.org/2000/svg" viewBox="0 0 24 24"><line x1="12" y1="3.5" x2="12" y2="20" stroke="#3d2417" stroke-width="1.6" stroke-linecap="round"/><line x1="6.5" y1="6.5" x2="17.5" y2="6.5" stroke="#3d2417" stroke-width="1.4" stroke-linecap="round"/><line x1="6.5" y1="6.5" x2="3.5" y2="11" stroke="#3d2417" stroke-width="1.2"/><line x1="6.5" y1="6.5" x2="9.5" y2="11" stroke="#3d2417" stroke-width="1.2"/><line x1="17.5" y1="6.5" x2="14.5" y2="11" stroke="#3d2417" stroke-width="1.2"/><line x1="17.5" y1="6.5" x2="20.5" y2="11" stroke="#3d2417" stroke-width="1.2"/><path d="M3 11.5 Q3 11 3.5 11 L9.5 11 Q10 11 10 11.5 Q9.5 13.5 6.5 13.5 Q3.5 13.5 3 11.5 Z" fill="#d4a24c" stroke="#3d2417" stroke-width="1.2" stroke-linejoin="round"/><path d="M14 11.5 Q14 11 14.5 11 L20.5 11 Q21 11 21 11.5 Q20.5 13.5 17.5 13.5 Q14.5 13.5 14 11.5 Z" fill="#d4a24c" stroke="#3d2417" stroke-width="1.2" stroke-linejoin="round"/><circle cx="12" cy="20" r="1.2" fill="#8a5e2a" stroke="#3d2417" stroke-width="0.7"/><rect x="10.5" y="20" width="3" height="1.5" fill="#3d2417"/><circle cx="6.5" cy="14" r="0.5" fill="#3d2417" opacity="0.5"/><circle cx="17.5" cy="14" r="0.5" fill="#3d2417" opacity="0.5"/></svg>
