<svg xmlns="http://www.w3.org/2000/svg" viewBox="0 0 24 24"><path d="M12 2.5 L13 3.5 L12 4.5 L11 3.5 Z" fill="#3d2417"/><rect x="11.5" y="3.5" width="1" height="2" fill="#3d2417"/><path d="M5 17 L5 16 Q5 8 12 6 Q19 8 19 16 L19 17 Z" fill="#3d2417"/><path d="M5.5 16.4 L5.5 15.7 Q5.5 8.7 12 6.7 Q18.5 8.7 18.5 15.7 L18.5 16.4 Z" fill="#d4a24c" stroke="#3d2417" stroke-width="1.2" stroke-linejoin="round"/><path d="M6.5 14.5 Q12 11 17.5 14.5" fill="none" stroke="#a87a2c" stroke-width="0.5" opacity="0.7"/><path d="M7.5 11 Q12 8.5 16.5 11" fill="none" stroke="#a87a2c" stroke-width="0.4" opacity="0.5"/><rect x="3.5" y="16.4" width="17" height="1.6" rx="0.5" fill="#3d2417"/><rect x="4" y="16.6" width="16" height="1.2" fill="#a87a2c" stroke="#3d2417" stroke-width="0.7"/><circle cx="12" cy="20" r="1.4" fill="#3d2417"/><circle cx="12" cy="20" r="1" fill="#8a5e2a" stroke="#3d2417" stroke-width="0.5"/></svg>
