<svg xmlns="http://www.w3.org/2000/svg" viewBox="0 0 24 24"><path d="M3 3.5 Q3 2.6 3.8 2.6 L20.4 2.6 Q21 2.7 21 3.6 L20.8 20.4 Q20.7 21.2 19.9 21.2 L3.7 21 Q3 20.9 3 20.1 Z" fill="#f3deaa" stroke="#3d2417" stroke-width="1.5" stroke-linejoin="round"/><path d="M3.4 19.5 L20.6 19.6" stroke="#3d2417" stroke-width="0.6" opacity="0.4"/><path d="M5.5 20.5 Q5.2 14.2 11.8 13.6 Q18.7 13.2 18.6 20.4" fill="#7a4a22" stroke="#3d2417" stroke-width="1.4" stroke-linejoin="round"/><path d="M6.2 20.4 Q5.8 15.5 11 15.2" fill="none" stroke="#3d2417" stroke-width="0.6" opacity="0.5"/><path d="M11.7 4.4 Q7.4 4.6 7.6 9.2 Q7.7 12.8 11.9 13.1 Q16.1 13.3 16.3 9.3 Q16.5 4.7 11.7 4.4 Z" fill="#c8a878" stroke="#3d2417" stroke-width="1.4" stroke-linejoin="round"/><path d="M11.5 6.2 Q9.5 6.6 9 9 Q9 11.5 10.8 11.7" fill="none" stroke="#3d2417" stroke-width="0.5" opacity="0.5"/><path d="M7.5 7 Q7.4 4.5 11.7 4.3 Q16.4 4.4 16.4 6.8 L16.4 8.4 Q14.2 7.2 12 7.2 Q9.8 7.2 7.5 8.4 Z" fill="#3d2417"/><path d="M9.6 8.5 Q11.7 7.7 14 8.4" stroke="#5e3a1f" stroke-width="0.4" fill="none"/><circle cx="14.2" cy="9.4" r="0.45" fill="#3d2417"/><circle cx="9.5" cy="9.4" r="0.45" fill="#3d2417"/><path d="M11.2 11 Q11.8 11.4 12.5 11" stroke="#3d2417" stroke-width="0.5" fill="none" stroke-linecap="round"/><path d="M3.4 3.2 L4.1 3.2 L4.1 3.9" fill="none" stroke="#c8862a" stroke-width="0.5"/><path d="M19.9 20.5 L20.5 20.5 L20.5 19.9" fill="none" stroke="#c8862a" stroke-width="0.5"/></svg>
