<svg xmlns="http://www.w3.org/2000/svg" viewBox="0 0 24 24"><path d="M5 11 L7 6 L9 8 L15 8 L17 6 L19 11 Q19 18 12 19 Q5 18 5 11 Z" fill="#3d2417"/><path d="M5.6 11 L7.5 7 L9 8.5 L15 8.5 L16.5 7 L18.4 11 Q18.4 17.5 12 18.5 Q5.6 17.5 5.6 11 Z" fill="#7a6a52" stroke="#3d2417" stroke-width="1.2" stroke-linejoin="round"/><path d="M7 8.5 Q9 6 12 6 Q15 6 17 8.5" fill="none" stroke="#5c5447" stroke-width="0.6" opacity="0.6"/><ellipse cx="9.3" cy="11.5" rx="2" ry="1.6" fill="#3d2417"/><ellipse cx="14.7" cy="11.5" rx="2" ry="1.6" fill="#3d2417"/><circle cx="9.3" cy="11.5" r="0.7" fill="#fff"/><circle cx="14.7" cy="11.5" r="0.7" fill="#fff"/><circle cx="9.3" cy="11.5" r="0.4" fill="#3d2417"/><circle cx="14.7" cy="11.5" r="0.4" fill="#3d2417"/><ellipse cx="12" cy="14" rx="0.9" ry="0.7" fill="#3d2417"/><path d="M11 15 L12 16.2 L13 15" fill="none" stroke="#3d2417" stroke-width="0.6" stroke-linecap="round"/><path d="M16.5 15.5 Q19 16 19.5 18.5 Q18 19.5 16.5 18.5 Q15.5 17.5 16.5 15.5 Z" fill="#7a4a22" stroke="#3d2417" stroke-width="1" stroke-linejoin="round"/><circle cx="18" cy="17.2" r="0.8" fill="#d4a24c" stroke="#3d2417" stroke-width="0.5"/><path d="M16.5 15.5 L19.5 18.5" stroke="#3d2417" stroke-width="0.4" opacity="0.5"/></svg>
