<svg xmlns="http://www.w3.org/2000/svg" viewBox="0 0 24 24"><rect x="3.5" y="2.5" width="17" height="19" rx="1.4" fill="#3d2417"/><rect x="4" y="3" width="16" height="18" rx="1.2" fill="#8a5e2a" stroke="#3d2417" stroke-width="1.3"/><rect x="4" y="3" width="2.7" height="18" fill="#6b4423" stroke="#3d2417" stroke-width="1"/><line x1="4.5" y1="6" x2="6.4" y2="6" stroke="#3d2417" stroke-width="0.7"/><line x1="4.5" y1="9" x2="6.4" y2="9" stroke="#3d2417" stroke-width="0.7"/><line x1="4.5" y1="12" x2="6.4" y2="12" stroke="#3d2417" stroke-width="0.7"/><line x1="4.5" y1="15" x2="6.4" y2="15" stroke="#3d2417" stroke-width="0.7"/><line x1="4.5" y1="18" x2="6.4" y2="18" stroke="#3d2417" stroke-width="0.7"/><path d="M9 6 L18 6.3" stroke="#5a3018" stroke-width="0.4" opacity="0.5"/><path d="M9 17 L17 17.3" stroke="#5a3018" stroke-width="0.4" opacity="0.5"/><path d="M14 9.3 L15.7 8.3 L17.5 9.2 L18.5 11 L18.1 13 L16.4 14.1 L14.4 13.5 L13.2 11.7 L13.4 9.7 Z" fill="#a8332a" stroke="#3a0c04" stroke-width="1.2" stroke-linejoin="round"/><circle cx="15.9" cy="11.5" r="2" fill="none" stroke="#3a0c04" stroke-width="0.4" opacity="0.5"/><text x="15.9" y="12.7" text-anchor="middle" font-family="serif" font-size="4.5" fill="#3a0c04" font-weight="700">H</text></svg>
