<svg xmlns="http://www.w3.org/2000/svg" viewBox="0 0 24 24"><path d="M3 5 Q3 4 4 4 L11.5 4 Q12 4 12 4.5 L12 21 Q12 21.5 11.5 21.5 L4 21.5 Q3 21.5 3 20.5 Z" fill="#3d2417"/><path d="M3.5 5 Q3.5 4.5 4.2 4.5 L11.5 4.5 L11.5 21 L4.2 21 Q3.5 21 3.5 20.3 Z" fill="#c8a878" stroke="#3d2417" stroke-width="1.2" stroke-linejoin="round"/><path d="M21 5 Q21 4 20 4 L12.5 4 Q12 4 12 4.5 L12 21 Q12 21.5 12.5 21.5 L20 21.5 Q21 21.5 21 20.5 Z" fill="#3d2417"/><path d="M20.5 5 Q20.5 4.5 19.8 4.5 L12.5 4.5 L12.5 21 L19.8 21 Q20.5 21 20.5 20.3 Z" fill="#c8a878" stroke="#3d2417" stroke-width="1.2" stroke-linejoin="round"/><line x1="12" y1="4" x2="12" y2="21.5" stroke="#3d2417" stroke-width="1.2"/><line x1="5" y1="8" x2="10.5" y2="8" stroke="#5a3018" stroke-width="0.6"/><line x1="5" y1="11" x2="10.5" y2="11" stroke="#5a3018" stroke-width="0.6"/><line x1="5" y1="14" x2="9.5" y2="14" stroke="#5a3018" stroke-width="0.6"/><line x1="5" y1="17" x2="10.5" y2="17" stroke="#5a3018" stroke-width="0.6"/><line x1="13.5" y1="8" x2="19" y2="8" stroke="#5a3018" stroke-width="0.6"/><line x1="13.5" y1="11" x2="19" y2="11" stroke="#5a3018" stroke-width="0.6"/><line x1="13.5" y1="14" x2="18.5" y2="14" stroke="#5a3018" stroke-width="0.6"/><line x1="13.5" y1="17" x2="19" y2="17" stroke="#5a3018" stroke-width="0.6"/><path d="M11.5 4.5 Q12 5 12.5 4.5" fill="none" stroke="#3d2417" stroke-width="1"/><circle cx="12" cy="11" r="1.6" fill="#d4a24c" stroke="#3d2417" stroke-width="0.7"/><path d="M11 11 L12 11.7 L13 10" stroke="#3d2417" stroke-width="0.5" fill="none"/></svg>
