<svg xmlns="http://www.w3.org/2000/svg" viewBox="0 0 24 24"><path d="M5 5 L8 9 L8 13 Q5 16 5 19 L9 19 L11 17 L13 17 L15 19 L19 19 Q19 16 16 13 L16 9 L19 5 L17 8 L15 7 L9 7 L7 8 Z" fill="#3d2417"/><path d="M5.8 5.8 L8.4 9.3 L8.4 13 Q6 15.5 6 18.4 L9 18.4 L10.7 16.6 L13.3 16.6 L15 18.4 L18 18.4 Q18 15.5 15.6 13 L15.6 9.3 L18.2 5.8 L17 8 L15 7.4 L9 7.4 L7 8 Z" fill="#7a6a52" stroke="#3d2417" stroke-width="1.2" stroke-linejoin="round"/><path d="M9 7 L7 8 L8.4 9.3" fill="#9a8a72" stroke="#3d2417" stroke-width="0.6"/><path d="M15 7 L17 8 L15.6 9.3" fill="#9a8a72" stroke="#3d2417" stroke-width="0.6"/><circle cx="9.5" cy="11.5" r="0.7" fill="#3d2417"/><circle cx="14.5" cy="11.5" r="0.7" fill="#3d2417"/><circle cx="9.5" cy="11.3" r="0.2" fill="#fff"/><circle cx="14.5" cy="11.3" r="0.2" fill="#fff"/><path d="M11 14 L12 15 L13 14 Z" fill="#3d2417"/><path d="M11 13.5 L13 13.5 L12 15.5 Z" fill="#5a3018"/><line x1="12" y1="15.5" x2="12" y2="16.5" stroke="#3d2417" stroke-width="0.5"/><path d="M9 16.5 Q10 17 11 16.5" stroke="#5a3018" stroke-width="0.4" fill="none"/><path d="M13 16.5 Q14 17 15 16.5" stroke="#5a3018" stroke-width="0.4" fill="none"/></svg>
